<?xml version="1.0" encoding="iso-8859-1"?>
<!-- Generator: Adobe Illustrator 19.0.0, SVG Export Plug-In . SVG Version: 6.00 Build 0)  -->
<svg version="1.1" id="Capa_1" xmlns="http://www.w3.org/2000/svg" xmlns:xlink="http://www.w3.org/1999/xlink" x="0px" y="0px"
	 viewBox="0 0 512 512" style="enable-background:new 0 0 512 512;" xml:space="preserve">
<polygon style="fill:#90D1F3;" points="51.2,469.333 8.533,469.333 8.533,8.533 315.733,8.533 315.733,307.2 179.2,307.2 
	179.2,469.333 85.333,469.333 85.333,256 68.267,221.867 51.2,256 "/>
<g style="opacity:0.25;enable-background:new    ;">
	<path style="fill:#269BD8;" d="M8.533,469.333V8.533h29.585c0,254.49,28.902,460.8,192.282,460.8H8.533z"/>
</g>
<rect x="179.2" y="307.2" style="fill:#90D1F3;" width="324.267" height="196.267"/>
<g style="opacity:0.25;enable-background:new    ;">
	<path style="fill:#269BD8;" d="M179.2,324.267v179.2h213.333c-83.627-0.017-157.833-53.623-184.115-133.018
		c6.861,3.294,14.37,5.009,21.982,5.018h221.867c28.279,0,51.2-22.921,51.2-51.2H179.2z"/>
</g>
<g>
	<polygon style="fill:#FFFFFF;" points="85.333,256 68.267,221.867 51.2,256 51.2,264.533 85.333,264.533 	"/>
	<rect x="51.2" y="264.533" style="fill:#FFFFFF;" width="34.133" height="187.733"/>
</g>
<path style="fill:#FCBF29;" d="M460.8,136.533v-21.649c21.077-18.85,22.878-51.217,4.028-72.294s-51.217-22.878-72.294-4.028
	s-22.878,51.217-4.028,72.294c1.263,1.417,2.611,2.765,4.028,4.028v21.649H460.8z"/>
<g style="opacity:0.5;enable-background:new    ;">
	<path style="fill:#F28D01;" d="M448,106.667c-28.279-0.034-51.174-22.98-51.14-51.26c0.009-8.303,2.039-16.486,5.914-23.834
		c-24.969,13.158-34.543,44.066-21.385,69.035c2.833,5.385,6.613,10.214,11.145,14.276v21.649H460.8v-21.649
		c4.463-4.028,8.183-8.798,11.008-14.106C464.469,104.653,456.294,106.675,448,106.667z"/>
</g>
<g>
	<rect x="51.2" y="418.133" style="fill:#0D529E;" width="34.133" height="34.133"/>
	<path style="fill:#0D529E;" d="M503.467,307.2L503.467,307.2c0,28.279-22.921,51.2-51.2,51.2H230.4
		c-28.279,0-51.2-22.921-51.2-51.2H503.467z"/>
</g>
<rect x="349.867" y="170.667" style="fill:#90D1F3;" width="153.6" height="102.4"/>
<g style="opacity:0.25;enable-background:new    ;">
	<path style="fill:#269BD8;" d="M349.867,273.067v-102.4h42.667c0,56.55,45.85,102.4,102.4,102.4H349.867z"/>
</g>
<g>
	<circle style="fill:#FCBF29;" cx="76.8" cy="76.8" r="34.133"/>
	<path style="fill:#FCBF29;" d="M51.2,486.4c0,9.429,7.637,17.067,17.067,17.067s17.067-7.637,17.067-17.067v-34.133H51.2V486.4z"/>
</g>
<path d="M366.933,128v17.067H486.4V128h-17.067v-9.472c23.091-23.561,22.699-61.38-0.862-84.471S407.091,11.358,384,34.918
	c-22.758,23.228-22.758,60.382,0,83.61V128H366.933z M398.225,108.527c-17.562-15.71-19.072-42.684-3.362-60.245
	s42.684-19.072,60.245-3.362c17.562,15.71,19.072,42.684,3.362,60.245c-1.058,1.186-2.176,2.304-3.362,3.362
	c-1.809,1.613-2.842,3.925-2.842,6.349V128H435.2v-22.067l23.1-23.1l-12.066-12.066l-19.567,19.567L407.1,70.767l-12.066,12.066
	l23.1,23.1V128h-17.067v-13.116C401.067,112.461,400.034,110.148,398.225,108.527z"/>
<rect x="68.267" y="68.267" width="17.067" height="17.067"/>
<rect x="375.467" y="196.267" width="17.067" height="17.067"/>
<path d="M76.8,34.133c-23.561,0-42.667,19.106-42.667,42.667s19.106,42.667,42.667,42.667s42.667-19.106,42.667-42.667
	C119.441,53.248,100.352,34.159,76.8,34.133z M76.8,102.4c-14.14,0-25.6-11.46-25.6-25.6s11.46-25.6,25.6-25.6s25.6,11.46,25.6,25.6
	S90.94,102.4,76.8,102.4z"/>
<path d="M503.467,298.667h-179.2V8.533c0-4.71-3.823-8.533-8.533-8.533H8.533C3.823,0,0,3.823,0,8.533v460.8
	c0,4.71,3.823,8.533,8.533,8.533h34.133v8.533c0,14.14,11.46,25.6,25.6,25.6s25.6-11.46,25.6-25.6v-8.533h76.8v25.6
	c0,4.71,3.823,8.533,8.533,8.533h324.267c4.71,0,8.533-3.823,8.533-8.533V307.2C512,302.49,508.177,298.667,503.467,298.667z
	 M494.08,315.733c-4.079,19.849-21.547,34.108-41.813,34.133H230.4c-20.267-0.026-37.734-14.285-41.813-34.133H494.08z
	 M59.733,273.067H76.8V409.6H59.733V273.067z M60.74,256l7.526-15.053L75.793,256H60.74z M59.733,426.667H76.8v17.067H59.733
	V426.667z M68.267,494.933c-4.71,0-8.533-3.823-8.533-8.533v-25.6H76.8v25.6C76.8,491.11,72.977,494.933,68.267,494.933z
	 M93.867,460.8V256c0-1.323-0.307-2.628-0.896-3.814l-17.067-34.133c-2.517-4.215-7.97-5.598-12.194-3.081
	c-1.271,0.759-2.33,1.818-3.081,3.081l-17.067,34.133c-0.589,1.186-0.896,2.492-0.896,3.814v204.8h-25.6V17.067H307.2v281.6h-128
	c-4.71,0-8.533,3.823-8.533,8.533v153.6H93.867z M494.933,494.933h-307.2V348.928c11.213,11.511,26.598,18.005,42.667,18.005
	h221.867c16.068,0,31.454-6.494,42.667-18.005V494.933z"/>
<path d="M503.467,162.133h-153.6c-4.71,0-8.533,3.823-8.533,8.533v102.4c0,4.71,3.823,8.533,8.533,8.533h153.6
	c4.71,0,8.533-3.823,8.533-8.533v-102.4C512,165.956,508.177,162.133,503.467,162.133z M494.933,264.533H358.4V179.2h136.533
	V264.533z"/>
<rect x="418.133" y="230.4" width="42.667" height="17.067"/>
<rect x="145.067" y="51.2" width="145.067" height="17.067"/>
<rect x="145.067" y="85.333" width="110.933" height="17.067"/>
<rect x="204.8" y="426.667" width="17.067" height="17.067"/>
<rect x="247.467" y="426.667" width="110.933" height="17.067"/>
<rect x="247.467" y="460.8" width="76.8" height="17.067"/>
<rect x="418.133" y="196.267" width="59.733" height="17.067"/>
<g>
</g>
<g>
</g>
<g>
</g>
<g>
</g>
<g>
</g>
<g>
</g>
<g>
</g>
<g>
</g>
<g>
</g>
<g>
</g>
<g>
</g>
<g>
</g>
<g>
</g>
<g>
</g>
<g>
</g>
</svg>
