<svg height="512pt" viewBox="0 -25 512 512" width="512pt" xmlns="http://www.w3.org/2000/svg"><path d="m487.933594 348.15625v34.382812c0 3.316407-2.683594 6-6 6h-451.867188c-3.316406 0-6-2.683593-6-6v-34.382812zm0 0" fill="#717b99"/><path d="m463.933594 348.15625v34.382812c0 3.316407-2.6875 6-6 6h24c3.316406 0 6-2.683593 6-6v-34.382812zm0 0" fill="#5c647d"/><path d="m90.332031 106.902344h331.332031v83.621094h-331.332031zm0 0" fill="#717b99"/><path d="m73.765625 188.65625v-92.320312c0-3.3125 2.683594-6 6-6h12.851563c3.3125 0 6 2.6875 6 6v92.316406zm0 0" fill="#ffaf10"/><path d="m413.382812 190.519531v-94.183593c0-3.3125 2.683594-6 6-6h12.851563c3.3125 0 6 2.6875 6 6v94.183593zm0 0" fill="#ffaf10"/><path d="m487.933594 330.558594v-124.253906c0-18.296876-14.832032-33.132813-33.132813-33.132813h-397.601562c-18.300781 0-33.132813 14.835937-33.132813 33.132813v124.25zm0 0" fill="#393e4d"/><path d="m454.800781 173.171875h-24c18.296875 0 33.132813 14.835937 33.132813 33.132813v124.253906h24v-124.253906c0-18.296876-14.832032-33.132813-33.132813-33.132813zm0 0" fill="#313542"/><path d="m7.5 349.40625v-37.699219c0-3.316406 2.6875-6 6-6l485-.003906c3.3125 0 6 2.6875 6 6v37.703125c0 3.316406-2.6875 6-6 6h-485c-3.3125 0-6-2.683594-6-6zm0 0" fill="#ffaf10"/><path d="m498.5 305.703125h-23.996094c3.3125 0 5.996094 2.6875 5.996094 6v37.703125c0 3.316406-2.6875 6-6 6h24c3.3125 0 6-2.683594 6-6v-37.703125c0-3.3125-2.6875-6-6-6zm0 0" fill="#ff890a"/><path d="m371.964844 330.554688v118.25c0 3.316406-2.683594 6-6 6h-219.933594c-3.3125 0-6-2.683594-6-6v-118.25zm0 0" fill="#c3ddf4"/><path d="m347.964844 330.554688v118.25c0 3.316406-2.6875 6-6 6h24c3.316406 0 6-2.683594 6-6v-118.25zm0 0" fill="#9cc2ed"/><path d="m140.03125 198.019531v-184.515625c0-3.3125 2.6875-6 6-6h176.234375l49.699219 49.699219v140.816406zm0 0" fill="#c3ddf4"/><path d="m140.03125 198.019531v-184.515625c0-3.3125 2.6875-6 6-6h176.234375l49.699219 49.699219v140.816406zm0 0" fill="#c3ddf4"/><path d="m347.964844 198.019531h24v-140.820312l-24-23.996094zm0 0" fill="#9cc2ed"/><path d="m181.449219 330.558594v51.976562c0 3.316406 2.6875 6 6 6h31.277343v-57.976562zm0 0" fill="#f26892"/><path d="m218.722656 330.558594h37.277344v57.976562h-37.277344zm0 0" fill="#fe3745"/><path d="m255.996094 330.558594h37.277344v57.976562h-37.277344zm0 0" fill="#69cdff"/><path d="m293.273438 330.558594v57.976562h31.277343c3.3125 0 6-2.683594 6-6v-51.976562zm0 0" fill="#02af8e"/><path d="m106.898438 264.289062c0 9.148438-7.414063 16.566407-16.566407 16.566407-9.148437 0-16.566406-7.417969-16.566406-16.566407 0-9.148437 7.417969-16.566406 16.566406-16.566406 9.152344 0 16.566407 7.417969 16.566407 16.566406zm0 0" fill="#ffaf10"/><path d="m322.265625 7.503906v43.699219c0 3.316406 2.6875 6 6 6h43.699219zm0 0" fill="#e5edf4"/><path d="m509.804688 300.398438c-1.40625-1.40625-3.316407-2.195313-5.304688-2.195313h-9.066406v-91.898437c0-22.402344-18.226563-40.632813-40.632813-40.632813h-9.066406v-75.332031c0-4.144532-3.359375-7.5-7.5-7.5h-24.851563c-4.144531 0-7.5 3.355468-7.5 7.5v9.0625h-26.417968v-42.199219c0-.253906-.011719-.503906-.035156-.75-.015626-.15625-.046876-.304687-.070313-.457031-.015625-.09375-.023437-.183594-.042969-.273438-.035156-.183594-.085937-.363281-.136718-.542968-.015626-.058594-.023438-.113282-.042969-.167969-.054688-.179688-.121094-.355469-.1875-.53125-.023438-.050781-.039063-.109375-.058594-.160157-.066406-.160156-.144531-.308593-.21875-.460937-.035156-.070313-.0625-.136719-.101563-.207031-.066406-.125-.144531-.242188-.21875-.363282-.050781-.089843-.101562-.179687-.160156-.265624-.058594-.085938-.121094-.164063-.183594-.246094-.226562-.308594-.46875-.605469-.742187-.882813l-49.699219-49.695312c-.015625-.019531-.035156-.035157-.050781-.050781-.160156-.152344-.320313-.300782-.492187-.441407-.050782-.042969-.101563-.074219-.15625-.117187-.140626-.109375-.28125-.21875-.433594-.320313-.046875-.03125-.09375-.058593-.144532-.085937-.15625-.105469-.320312-.203125-.488281-.292969-.03125-.019531-.0625-.03125-.097656-.046875-.183594-.097656-.371094-.1875-.566406-.269531-.019531-.007813-.042969-.015625-.0625-.023438-.207031-.082031-.414063-.160156-.625-.226562-.023438-.003907-.050781-.011719-.074219-.015625-.210938-.0625-.421875-.117188-.636719-.160156-.0625-.015626-.125-.019532-.1875-.03125-.179687-.0312505-.359375-.0625005-.539062-.0781255-.25-.0273437-.5-.0390625-.75-.0390625h-182.230469c-4.140625 0-7.5 3.359375-7.5 7.5v28.59375c0 4.144531 3.359375 7.5 7.5 7.5 4.144531 0 7.5-3.355469 7.5-7.5v-21.089844h167.234375v42.199219c0 4.144531 3.359375 7.5 7.5 7.5h42.199219v108.449219.019531.019531 17.328125h-216.933594v-124.375c0-4.140625-3.355469-7.5-7.5-7.5-4.140625 0-7.5 3.359375-7.5 7.5v33.257813h-26.414062v-9.0625c0-4.144532-3.359376-7.5-7.5-7.5h-24.851563c-4.144531 0-7.5 3.355468-7.5 7.5v75.332031h-9.066406c-22.40625 0-40.632813 18.230469-40.632813 40.632813v91.902343h-9.066406c-4.140625 0-7.5 3.355469-7.5 7.5v49.699219c0 4.144531 3.359375 7.5 7.5 7.5h9.066406v25.632812c0 4.144532 3.355469 7.5 7.5 7.5h108.464844v58.769532c0 4.140625 3.359375 7.5 7.5 7.5h231.933594c4.144531 0 7.5-3.359375 7.5-7.5v-58.769532h108.46875c4.144531 0 7.5-3.355468 7.5-7.5v-25.632812h9.066406c4.140625 0 7.5-3.355469 7.5-7.5v-49.703125c0-1.988281-.789062-3.894531-2.195312-5.304687zm-88.921876-134.726563v-34.699219h9.851563v34.699219zm0-67.832031h9.851563v18.132812h-9.851563zm-15 16.5625v51.269531h-26.417968v-51.269531zm-76.117187-88.792969 24.09375 24.09375h-24.09375zm-197.234375 88.792969v51.269531h-26.414062v-51.269531zm-41.414062-16.5625v9.042968c0 .007813-.003907.015626-.003907.019532 0 .007812.003907.011718.003907.019531v9.050781h-9.851563v-18.136718h9.851563zm-9.851563 33.132812h9.851563v34.699219h-9.851563zm-49.699219 99.398438h25.632813c4.144531 0 7.5-3.355469 7.5-7.5 0-4.140625-3.355469-7.5-7.5-7.5h-25.632813v-9.066406c0-14.132813 11.496094-25.632813 25.632813-25.632813h75.332031v9.851563h-9.066406c-4.140625 0-7.5 3.355468-7.5 7.5 0 4.140624 3.359375 7.5 7.5 7.5h265.066406c4.144531 0 7.5-3.359376 7.5-7.5 0-4.144532-3.355469-7.5-7.5-7.5h-9.066406v-9.851563h75.335937c14.132813 0 25.632813 11.5 25.632813 25.632813v9.066406h-25.632813c-4.144531 0-7.5 3.359375-7.5 7.5 0 4.144531 3.355469 7.5 7.5 7.5h25.632813v67.832031l-448.867188.003906zm0 150.667968v-18.132812h100.964844v18.132812zm332.898438 66.265626h-216.933594v-58.734376c0-.011718 0-.019531 0-.03125 0-.007812 0-.019531 0-.027343v-33.097657s0-.003906 0-.007812 0-.007812 0-.011719v-17.339843h26.417969v50.480468c0 4.144532 3.359375 7.5 7.5 7.5h149.101562c4.140625 0 7.5-3.355468 7.5-7.5v-50.480468h26.414063zm-63.691406-109.25h22.277343v42.980468h-22.277343zm-15 42.980468h-22.273438v-42.980468h22.273438zm-37.277344 0h-22.269532v-42.980468h22.269532zm-37.273438 0h-22.273437v-42.980468h22.273437zm269.210938.003906h-100.96875v-18.132812h100.96875zm16.566406-33.132812h-9.046875c-.007813 0-.011719 0-.019531 0-.003906 0-.011719 0-.019532 0h-17.332031v-17.351562c0-4.144532-3.359375-7.5-7.5-7.5s-7.5 3.355468-7.5 7.5v17.351562h-76.117187v-9.851562h9.066406c4.144531 0 7.5-3.355469 7.5-7.5 0-4.144532-3.355469-7.5-7.5-7.5h-265.066406c-4.140625 0-7.5 3.355468-7.5 7.5 0 4.144531 3.359375 7.5 7.5 7.5h9.066406v9.851562h-76.117188v-17.351562c0-4.144532-3.355468-7.5-7.5-7.5-4.140624 0-7.5 3.355468-7.5 7.5v17.351562h-26.414062v-34.699219h9.066406l472.933594-.003906zm0 0"/><path d="m90.332031 240.222656c-13.269531 0-24.066406 10.796875-24.066406 24.066406 0 13.269532 10.796875 24.066407 24.066406 24.066407s24.066407-10.796875 24.066407-24.066407c0-13.269531-10.796876-24.066406-24.066407-24.066406zm0 33.132813c-5 0-9.066406-4.066407-9.066406-9.066407s4.066406-9.066406 9.066406-9.066406 9.066407 4.066406 9.066407 9.066406-4.066407 9.066407-9.066407 9.066407zm0 0"/><path d="m438.230469 256.789062h-33.128907c-4.144531 0-7.5 3.355469-7.5 7.5 0 4.144532 3.355469 7.5 7.5 7.5h33.128907c4.144531 0 7.5-3.355468 7.5-7.5 0-4.144531-3.355469-7.5-7.5-7.5zm0 0"/><path d="m140.03125 248.507812c-4.140625 0-7.5 3.355469-7.5 7.5v16.5625c0 4.144532 3.359375 7.5 7.5 7.5 4.144531 0 7.5-3.355468 7.5-7.5v-16.5625c0-4.144531-3.355469-7.5-7.5-7.5zm0 0"/><path d="m164.882812 248.507812c-4.140624 0-7.5 3.355469-7.5 7.5v16.5625c0 4.144532 3.359376 7.5 7.5 7.5 4.140626 0 7.5-3.355468 7.5-7.5v-16.5625c0-4.144531-3.359374-7.5-7.5-7.5zm0 0"/><path d="m189.734375 248.507812c-4.144531 0-7.5 3.355469-7.5 7.5v16.5625c0 4.144532 3.355469 7.5 7.5 7.5 4.140625 0 7.5-3.355468 7.5-7.5v-16.5625c0-4.144531-3.359375-7.5-7.5-7.5zm0 0"/><path d="m330.550781 414.175781h-24.851562c-4.140625 0-7.5 3.355469-7.5 7.5 0 4.140625 3.359375 7.5 7.5 7.5h24.851562c4.140625 0 7.5-3.359375 7.5-7.5 0-4.144531-3.359375-7.5-7.5-7.5zm0 0"/></svg>